<svg width="50" height="50" viewBox="0 0 50 50" fill="none" xmlns="http://www.w3.org/2000/svg">
    <circle cx="25" cy="25" r="25" fill="#0078FF"/>
    <path fill-rule="evenodd" clip-rule="evenodd" d="M24.3751 13.7498C18.3891 13.7498 13.75 18.1345 13.75 24.0564C13.75 27.1541 15.0199 29.8307 17.0872 31.68C17.2604 31.836 17.3651 32.052 17.3737 32.285L17.4314 34.1749C17.4506 34.7777 18.0727 35.169 18.6243 34.9274L20.7322 33.9974C20.9118 33.9183 21.1106 33.9033 21.2988 33.9547C22.2672 34.2219 23.2998 34.363 24.3751 34.363C30.3611 34.363 35.0003 29.9782 35.0003 24.0564C35.0003 18.1345 30.3611 13.7498 24.3751 13.7498ZM30.7545 21.6791L27.6332 26.6304C27.1372 27.4171 26.0726 27.6138 25.3286 27.0558L22.8466 25.1937C22.6178 25.0227 22.3057 25.0248 22.0791 25.1959L18.7269 27.7399C18.2801 28.0798 17.6943 27.5432 17.9958 27.0686L21.117 22.1174C21.613 21.3306 22.6777 21.1339 23.4217 21.6919L25.9037 23.554C26.1325 23.725 26.4446 23.7229 26.6712 23.5519L30.0233 21.0078C30.4702 20.6679 31.0559 21.2045 30.7545 21.6791Z" fill="white"/>
</svg>
