<svg width="50" height="50" viewBox="0 0 50 50" fill="none" xmlns="http://www.w3.org/2000/svg">
    <circle cx="25" cy="25" r="25" fill="#7360F2"/>
    <path d="M32.905 17.0737C32.3776 16.5849 30.2423 15.0349 25.4894 15.0156C25.4894 15.0156 19.8811 14.6747 17.1284 17.183C15.6041 18.7073 15.0703 20.9326 15.0124 23.6917C14.9545 26.4509 14.8838 31.6218 19.8682 33.0239V35.1656C19.8682 35.1656 19.8682 36.0339 20.4085 36.2075C21.0967 36.4262 21.5019 35.7638 22.1643 35.0563C22.5245 34.664 23.0261 34.0916 23.3992 33.6542C25.5198 33.8523 27.6586 33.6958 29.7278 33.1911C30.416 32.966 34.3135 32.4708 34.9502 27.2934C35.6255 21.9617 34.6544 18.5915 32.905 17.0737ZM33.4838 26.9139C32.9436 31.2295 29.7857 31.4996 29.2069 31.6862C27.4265 32.125 25.5885 32.2834 23.7593 32.1557C23.7593 32.1557 21.5983 34.7283 20.923 35.4357C20.8854 35.4801 20.8379 35.515 20.7842 35.5373C20.7305 35.5597 20.6723 35.569 20.6143 35.5644C20.4985 35.5322 20.4664 35.3972 20.4664 35.1978C20.4664 34.9984 20.4664 31.6411 20.4664 31.6411C16.2473 30.4642 16.4917 26.065 16.5431 23.7625C16.5946 21.46 17.0255 19.5691 18.3118 18.2957C20.6207 16.2054 25.3865 16.5141 25.3865 16.5141C29.4062 16.5141 31.3357 17.7426 31.7795 18.1477C33.278 19.4212 34.0305 22.4569 33.4838 26.9139Z" fill="white"/>
    <path d="M27.4442 23.8394C27.3747 23.8395 27.3079 23.8128 27.2576 23.7649C27.2073 23.717 27.1774 23.6516 27.1741 23.5822C27.191 23.3982 27.1681 23.2128 27.1069 23.0385C27.0457 22.8642 26.9477 22.7052 26.8196 22.5721C26.6914 22.4391 26.5361 22.3352 26.3642 22.2676C26.1923 22.1999 26.0079 22.1701 25.8235 22.1801C25.7518 22.1758 25.6848 22.1433 25.6372 22.0896C25.5895 22.0359 25.5651 21.9655 25.5694 21.8939C25.5737 21.8223 25.6062 21.7553 25.6599 21.7076C25.7136 21.66 25.784 21.6356 25.8556 21.6399C26.1079 21.6321 26.359 21.6772 26.5927 21.7724C26.8265 21.8676 27.0377 22.0107 27.2128 22.1924C27.3879 22.3742 27.523 22.5906 27.6094 22.8278C27.6958 23.0649 27.7315 23.3175 27.7143 23.5693C27.7161 23.6048 27.7108 23.6403 27.6988 23.6737C27.6868 23.7072 27.6683 23.7379 27.6444 23.7642C27.6205 23.7905 27.5917 23.8118 27.5595 23.8269C27.5274 23.842 27.4926 23.8507 27.4571 23.8523L27.4442 23.8394Z" fill="white"/>
    <path d="M28.8278 24.3027C28.7923 24.3018 28.7573 24.294 28.7249 24.2797C28.6924 24.2653 28.6631 24.2447 28.6386 24.219C28.6141 24.1934 28.595 24.1631 28.5822 24.13C28.5694 24.0969 28.5632 24.0616 28.5641 24.0261C28.5883 23.6132 28.5297 23.1996 28.3916 22.8097C28.2535 22.4198 28.0388 22.0614 27.7601 21.7558C27.1454 21.1191 26.3038 20.7515 25.4191 20.7332C25.3806 20.7357 25.342 20.7299 25.3059 20.7162C25.2698 20.7025 25.2371 20.6813 25.2099 20.6539C25.1827 20.6265 25.1617 20.5936 25.1483 20.5574C25.1349 20.5212 25.1294 20.4826 25.1322 20.4441C25.135 20.4056 25.146 20.3682 25.1645 20.3343C25.1829 20.3005 25.2084 20.2709 25.2393 20.2477C25.2701 20.2245 25.3055 20.2082 25.3432 20.1999C25.3809 20.1915 25.4199 20.1914 25.4576 20.1994C26.4791 20.2272 27.4489 20.6543 28.1589 21.3892C28.8047 22.1061 29.14 23.0496 29.0915 24.0133C29.0951 24.05 29.0909 24.0871 29.0793 24.1221C29.0677 24.1571 29.0488 24.1893 29.024 24.2166C28.9991 24.2439 28.9688 24.2656 28.935 24.2804C28.9012 24.2953 28.8647 24.3029 28.8278 24.3027Z" fill="white"/>
    <path d="M30.236 24.8557C30.1643 24.8557 30.0956 24.8272 30.045 24.7765C29.9943 24.7259 29.9659 24.6572 29.9659 24.5855C30.0036 23.8773 29.8946 23.1689 29.6456 22.5048C29.3965 21.8408 29.0129 21.2354 28.5188 20.7266C28.0482 20.2669 27.4907 19.9057 26.8789 19.6638C26.2672 19.422 25.6134 19.3044 24.9557 19.3181C24.884 19.3181 24.8153 19.2896 24.7647 19.239C24.714 19.1883 24.6855 19.1196 24.6855 19.048C24.6855 18.9763 24.714 18.9076 24.7647 18.857C24.8153 18.8063 24.884 18.7778 24.9557 18.7778C25.6824 18.7656 26.4044 18.8974 27.08 19.1656C27.7556 19.4339 28.3713 19.8333 28.8918 20.3407C29.4325 20.8978 29.8539 21.5592 30.1304 22.2846C30.4068 23.01 30.5325 23.7842 30.4997 24.5598C30.4997 24.6314 30.4712 24.7002 30.4206 24.7508C30.3699 24.8015 30.3012 24.8299 30.2295 24.8299L30.236 24.8557Z" fill="white"/>
    <path d="M25.8953 27.1714C26.0019 27.1794 26.1089 27.1639 26.2089 27.1261C26.3089 27.0884 26.3994 27.0292 26.4741 26.9528L26.8729 26.4511C27.0094 26.3008 27.1946 26.2036 27.3958 26.1766C27.597 26.1495 27.8013 26.1943 27.9727 26.3032C28.3139 26.5 28.6445 26.7147 28.9631 26.9463C29.2654 27.1714 29.8764 27.6795 29.8764 27.6859C30.0203 27.8024 30.1163 27.9677 30.146 28.1505C30.1756 28.3332 30.1369 28.5204 30.0372 28.6764C29.8183 29.0566 29.5404 29.3996 29.2139 29.6926C28.9784 29.9065 28.6856 30.0473 28.3714 30.0978C28.331 30.1047 28.2896 30.1047 28.2492 30.0978C28.1293 30.0996 28.0099 30.0822 27.8955 30.0463C27.0939 29.7692 26.3224 29.4115 25.593 28.9787C24.914 28.6062 24.2685 28.1758 23.6635 27.6924C23.3596 27.4519 23.0697 27.1942 22.7953 26.9206H22.7631C22.4911 26.6424 22.2335 26.3504 21.9913 26.0459C21.51 25.4393 21.0798 24.794 20.705 24.1164C20.2721 23.388 19.9164 22.6163 19.6438 21.8139C19.6058 21.6976 19.5863 21.5761 19.5859 21.4538C19.582 21.4131 19.582 21.3722 19.5859 21.3316C19.6354 21.019 19.7764 20.728 19.9911 20.4955C20.2385 20.1208 20.5447 19.7885 20.898 19.5114C21.0549 19.4113 21.2432 19.3723 21.427 19.402C21.6108 19.4316 21.7773 19.5278 21.8948 19.6722C21.8948 19.6722 22.4094 20.3154 22.628 20.5855C22.8467 20.8556 23.1168 21.3251 23.2712 21.576C23.3773 21.7498 23.4198 21.955 23.3917 22.1567C23.3636 22.3583 23.2664 22.544 23.1168 22.6822L22.6152 23.0745C22.5386 23.1505 22.4794 23.2421 22.4416 23.3432C22.4039 23.4442 22.3885 23.5522 22.3965 23.6598C22.6416 24.49 23.0899 25.2459 23.7008 25.859C24.3118 26.4722 25.066 26.9233 25.8953 27.1714Z" fill="white"/>
</svg>
